<?xml version="1.0" encoding="UTF-8"?>
<svg id="Layer_2" data-name="Layer 2" xmlns="http://www.w3.org/2000/svg" xmlns:xlink="http://www.w3.org/1999/xlink" viewBox="0 0 592.45 103.95">
  <defs>
    <style>
      .cls-1 {
        fill: url(#linear-gradient);
      }

      .cls-1, .cls-2, .cls-3, .cls-4, .cls-5, .cls-6, .cls-7, .cls-8, .cls-9, .cls-10, .cls-11, .cls-12, .cls-13, .cls-14, .cls-15, .cls-16, .cls-17, .cls-18, .cls-19, .cls-20, .cls-21, .cls-22, .cls-23 {
        stroke-width: 0px;
      }

      .cls-2 {
        fill: url(#linear-gradient-11);
      }

      .cls-3 {
        fill: url(#linear-gradient-12);
      }

      .cls-4 {
        fill: url(#linear-gradient-13);
      }

      .cls-5 {
        fill: url(#linear-gradient-10);
      }

      .cls-6 {
        fill: url(#linear-gradient-17);
      }

      .cls-7 {
        fill: url(#linear-gradient-16);
      }

      .cls-8 {
        fill: url(#linear-gradient-19);
      }

      .cls-9 {
        fill: url(#linear-gradient-15);
      }

      .cls-10 {
        fill: url(#linear-gradient-21);
      }

      .cls-11 {
        fill: url(#linear-gradient-18);
      }

      .cls-12 {
        fill: url(#linear-gradient-14);
      }

      .cls-13 {
        fill: url(#linear-gradient-22);
      }

      .cls-14 {
        fill: url(#linear-gradient-20);
      }

      .cls-15 {
        fill: url(#linear-gradient-4);
      }

      .cls-16 {
        fill: url(#linear-gradient-2);
      }

      .cls-17 {
        fill: url(#linear-gradient-3);
      }

      .cls-18 {
        fill: url(#linear-gradient-8);
      }

      .cls-19 {
        fill: url(#linear-gradient-9);
      }

      .cls-20 {
        fill: url(#linear-gradient-7);
      }

      .cls-21 {
        fill: url(#linear-gradient-5);
      }

      .cls-22 {
        fill: url(#linear-gradient-6);
      }

      .cls-23 {
        fill: #fff;
      }
    </style>
    <linearGradient id="linear-gradient" x1="5.69" y1="55.96" x2="579.07" y2="55.96" gradientUnits="userSpaceOnUse">
      <stop offset="0" stop-color="#07b5ff"/>
      <stop offset=".18" stop-color="#0792f8"/>
      <stop offset=".3" stop-color="#0780f5"/>
      <stop offset=".55" stop-color="#185bfb"/>
      <stop offset=".72" stop-color="#2149ff"/>
      <stop offset=".86" stop-color="#4435ff"/>
      <stop offset="1" stop-color="#6b21ff"/>
    </linearGradient>
    <linearGradient id="linear-gradient-2" x1="5.69" y1="35.29" x2="579.07" y2="35.29" xlink:href="#linear-gradient"/>
    <linearGradient id="linear-gradient-3" x1="5.69" y1="51.63" x2="579.07" y2="51.63" xlink:href="#linear-gradient"/>
    <linearGradient id="linear-gradient-4" x1="5.69" y1="35.29" x2="579.07" y2="35.29" xlink:href="#linear-gradient"/>
    <linearGradient id="linear-gradient-5" x1="5.69" y1="35.29" x2="579.07" y2="35.29" xlink:href="#linear-gradient"/>
    <linearGradient id="linear-gradient-6" x1="5.69" y1="35.29" x2="579.07" y2="35.29" xlink:href="#linear-gradient"/>
    <linearGradient id="linear-gradient-7" x1="5.69" y1="35.29" x2="579.07" y2="35.29" xlink:href="#linear-gradient"/>
    <linearGradient id="linear-gradient-8" x1="5.69" y1="35.29" x2="579.07" y2="35.29" xlink:href="#linear-gradient"/>
    <linearGradient id="linear-gradient-9" y1="35.29" x2="579.07" y2="35.29" xlink:href="#linear-gradient"/>
    <linearGradient id="linear-gradient-10" x1="5.69" y1="35.29" x2="579.07" y2="35.29" xlink:href="#linear-gradient"/>
    <linearGradient id="linear-gradient-11" x1="5.69" y1="35.29" x2="579.07" y2="35.29" xlink:href="#linear-gradient"/>
    <linearGradient id="linear-gradient-12" x1="5.39" y1="51.93" x2="579.27" y2="51.93" gradientUnits="userSpaceOnUse">
      <stop offset="0" stop-color="#fff"/>
      <stop offset=".11" stop-color="#cde5fc"/>
      <stop offset=".36" stop-color="#51a5f7"/>
      <stop offset=".5" stop-color="#0780f5"/>
      <stop offset=".52" stop-color="#106cf8"/>
      <stop offset=".55" stop-color="#1958fc"/>
      <stop offset=".57" stop-color="#1f4cfe"/>
      <stop offset=".6" stop-color="#2149ff"/>
      <stop offset=".64" stop-color="#3b5eff"/>
      <stop offset=".77" stop-color="#8ea2ff"/>
      <stop offset=".88" stop-color="#cbd4ff"/>
      <stop offset=".96" stop-color="#f0f3ff"/>
      <stop offset="1" stop-color="#fff"/>
    </linearGradient>
    <linearGradient id="linear-gradient-13" x1="5.39" y1="31.24" x2="579.27" y2="31.24" xlink:href="#linear-gradient-12"/>
    <linearGradient id="linear-gradient-14" x1="5.39" y1="47.59" x2="579.27" y2="47.59" xlink:href="#linear-gradient-12"/>
    <linearGradient id="linear-gradient-15" x1="5.39" y1="31.24" x2="579.27" y2="31.24" xlink:href="#linear-gradient-12"/>
    <linearGradient id="linear-gradient-16" x1="5.39" y1="31.24" x2="579.27" y2="31.24" xlink:href="#linear-gradient-12"/>
    <linearGradient id="linear-gradient-17" x1="5.39" y1="31.24" x2="579.27" y2="31.24" xlink:href="#linear-gradient-12"/>
    <linearGradient id="linear-gradient-18" x1="5.39" y1="31.24" x2="579.27" y2="31.24" xlink:href="#linear-gradient-12"/>
    <linearGradient id="linear-gradient-19" x1="5.39" y1="31.24" x2="579.27" y2="31.24" xlink:href="#linear-gradient-12"/>
    <linearGradient id="linear-gradient-20" x1="5.39" y1="31.24" x2="579.27" y2="31.24" xlink:href="#linear-gradient-12"/>
    <linearGradient id="linear-gradient-21" x1="5.39" y1="31.24" x2="579.27" y2="31.24" xlink:href="#linear-gradient-12"/>
    <linearGradient id="linear-gradient-22" x1="5.39" y1="31.24" x2="579.27" y2="31.24" xlink:href="#linear-gradient-12"/>
  </defs>
  <g id="Layer_1-2" data-name="Layer 1">
    <g>
      <g>
        <g>
          <path class="cls-1" d="m60.63,7.98l19.51,54.62h-15.61l-1.29-3.9h-18.38l5.93-15.61h7.22l-5.19-15.61-13.73,35.12L.31,103.95,43.97,10.67l-2.69-2.69h19.35Z"/>
          <path class="cls-16" d="m90.59,7.98v27.31c0,7.8,2.6,11.71,7.8,11.71s7.8-3.9,7.8-11.71V7.98h15.61v27.31c0,18.21-7.8,27.31-23.41,27.31s-23.41-9.1-23.41-27.31V11.88l-3.9-3.9h19.51Z"/>
          <path class="cls-17" d="m197.99,95.28l-49.07-49.96-.08-13.93h7.88c2.6,0,3.9-1.3,3.9-3.9s-1.3-3.9-3.9-3.9h-11.71v39.02h-15.61V11.88l-3.9-3.9h31.21c13.01,0,19.51,6.5,19.51,19.51,0,10.41-2.6,16.27-7.8,17.6l29.56,50.2Z"/>
          <path class="cls-15" d="m218.8,7.98v15.61h-19.51v7.8h23.41l-23.41,11.71v3.9h19.51v15.61h-35.12V11.88l-3.9-3.9h39.02Z"/>
          <path class="cls-21" d="m242.21,7.98v39.02h15.61l-15.61,15.61h-15.61V11.88l-3.9-3.9h19.51Z"/>
          <path class="cls-22" d="m273.03,7.98v54.62h-15.61V11.88l-3.9-3.9h19.51Z"/>
          <path class="cls-20" d="m303.93,62.6c-7.54,0-13.98-2.67-19.31-8-5.33-5.33-8-11.77-8-19.31s2.67-13.98,8-19.31c5.33-5.33,11.77-8,19.31-8s13.98,2.67,19.31,8c5.33,5.33,8,11.77,8,19.31s-2.67,13.98-8,19.31c-5.33,5.33-11.77,8-19.31,8Zm8.27-19.04c2.29-2.29,3.43-5.05,3.43-8.27s-1.15-5.98-3.43-8.27c-2.29-2.29-5.05-3.43-8.27-3.43s-5.98,1.14-8.27,3.43c-2.29,2.29-3.43,5.05-3.43,8.27s1.14,5.98,3.43,8.27c2.29,2.29,5.05,3.43,8.27,3.43s5.98-1.14,8.27-3.43Z"/>
          <path class="cls-18" d="m386.92,7.98v58.53l-35.12-27.31v23.41h-15.61V4.08l35.12,29.26V11.88l-3.9-3.9h19.51Z"/>
          <path class="cls-19" d="m443.3,43.09c-13.01,0-19.51-5.9-19.51-17.71s6.5-17.4,19.51-17.4h23.41l-15.61,15.61h-7.8c-2.6,0-3.9.6-3.9,1.79,0,1.4,1.3,2.11,3.9,2.11h7.8c13.01,0,19.51,5.8,19.51,17.4s-6.5,17.71-19.51,17.71h-41.01l33.2-15.61h7.8c2.6,0,3.9-.7,3.9-2.11,0-1.2-1.3-1.79-3.9-1.79h-7.8Z"/>
          <path class="cls-5" d="m500.92,62.6c-7.54,0-13.98-2.67-19.31-8-5.33-5.33-8-11.77-8-19.31s2.67-13.98,8-19.31c5.33-5.33,11.77-8,19.31-8s13.98,2.67,19.31,8c5.33,5.33,8,11.77,8,19.31s-2.67,13.98-8,19.31c-5.33,5.33-11.77,8-19.31,8Zm8.27-19.04c2.29-2.29,3.43-5.05,3.43-8.27s-1.15-5.98-3.43-8.27c-2.29-2.29-5.05-3.43-8.27-3.43s-5.98,1.14-8.27,3.43c-2.29,2.29-3.43,5.05-3.43,8.27s1.14,5.98,3.43,8.27c2.29,2.29,5.05,3.43,8.27,3.43s5.98-1.14,8.27-3.43Z"/>
          <path class="cls-2" d="m548.45,7.98v39.02h43.8l-43.8,15.61h-15.61V11.88l-3.9-3.9h19.51Z"/>
        </g>
        <g>
          <path class="cls-23" d="m60.63,3.96l19.51,54.62h-15.61l-1.29-3.9h-18.38l5.93-15.61h7.22l-5.19-15.61-13.73,35.12L.31,99.93,43.97,6.65l-2.69-2.69h19.35Z"/>
          <path class="cls-23" d="m90.59,3.96v27.31c0,7.8,2.6,11.71,7.8,11.71s7.8-3.9,7.8-11.71V3.96h15.61v27.31c0,18.21-7.8,27.31-23.41,27.31s-23.41-9.1-23.41-27.31V7.86l-3.9-3.9h19.51Z"/>
          <path class="cls-23" d="m197.99,91.26l-49.07-49.96-.08-13.93h7.88c2.6,0,3.9-1.3,3.9-3.9s-1.3-3.9-3.9-3.9h-11.71v39.02h-15.61V7.86l-3.9-3.9h31.21c13.01,0,19.51,6.5,19.51,19.51,0,10.41-2.6,16.27-7.8,17.6l29.56,50.2Z"/>
          <path class="cls-23" d="m218.8,3.96v15.61h-19.51v7.8h23.41l-23.41,11.71v3.9h19.51v15.61h-35.12V7.86l-3.9-3.9h39.02Z"/>
          <path class="cls-23" d="m242.21,3.96v39.02h15.61l-15.61,15.61h-15.61V7.86l-3.9-3.9h19.51Z"/>
          <path class="cls-23" d="m273.03,3.96v54.62h-15.61V7.86l-3.9-3.9h19.51Z"/>
          <path class="cls-23" d="m303.93,58.59c-7.54,0-13.98-2.67-19.31-8-5.33-5.33-8-11.77-8-19.31s2.67-13.98,8-19.31c5.33-5.33,11.77-8,19.31-8s13.98,2.67,19.31,8c5.33,5.33,8,11.77,8,19.31s-2.67,13.98-8,19.31c-5.33,5.33-11.77,8-19.31,8Zm8.27-19.04c2.29-2.29,3.43-5.05,3.43-8.27s-1.15-5.98-3.43-8.27c-2.29-2.29-5.05-3.43-8.27-3.43s-5.98,1.14-8.27,3.43c-2.29,2.29-3.43,5.05-3.43,8.27s1.14,5.98,3.43,8.27c2.29,2.29,5.05,3.43,8.27,3.43s5.98-1.14,8.27-3.43Z"/>
          <path class="cls-23" d="m386.92,3.96v58.53l-35.12-27.31v23.41h-15.61V.06l35.12,29.26V7.86l-3.9-3.9h19.51Z"/>
          <path class="cls-23" d="m443.3,39.08c-13.01,0-19.51-5.9-19.51-17.71s6.5-17.4,19.51-17.4h23.41l-15.61,15.61h-7.8c-2.6,0-3.9.6-3.9,1.79,0,1.4,1.3,2.11,3.9,2.11h7.8c13.01,0,19.51,5.8,19.51,17.4s-6.5,17.71-19.51,17.71h-41.01l33.2-15.61h7.8c2.6,0,3.9-.7,3.9-2.11,0-1.2-1.3-1.79-3.9-1.79h-7.8Z"/>
          <path class="cls-23" d="m500.92,58.59c-7.54,0-13.98-2.67-19.31-8-5.33-5.33-8-11.77-8-19.31s2.67-13.98,8-19.31c5.33-5.33,11.77-8,19.31-8s13.98,2.67,19.31,8c5.33,5.33,8,11.77,8,19.31s-2.67,13.98-8,19.31c-5.33,5.33-11.77,8-19.31,8Zm8.27-19.04c2.29-2.29,3.43-5.05,3.43-8.27s-1.15-5.98-3.43-8.27c-2.29-2.29-5.05-3.43-8.27-3.43s-5.98,1.14-8.27,3.43c-2.29,2.29-3.43,5.05-3.43,8.27s1.14,5.98,3.43,8.27c2.29,2.29,5.05,3.43,8.27,3.43s5.98-1.14,8.27-3.43Z"/>
          <path class="cls-23" d="m548.45,3.96v39.02h43.8l-43.8,15.61h-15.61V7.86l-3.9-3.9h19.51Z"/>
        </g>
      </g>
      <g>
        <path class="cls-3" d="m60.37,3.91l19.53,54.67h-15.62l-1.29-3.91h-18.39l5.94-15.62h7.22l-5.19-15.62-13.75,35.15L0,99.96,43.7,6.6l-2.69-2.69h19.37Z"/>
        <path class="cls-4" d="m90.36,3.91v27.34c0,7.81,2.6,11.72,7.81,11.72s7.81-3.91,7.81-11.72V3.91h15.62v27.34c0,18.22-7.81,27.34-23.43,27.34s-23.43-9.11-23.43-27.34V7.81l-3.91-3.91h19.53Z"/>
        <path class="cls-12" d="m197.86,91.28l-49.11-50-.08-13.94h7.89c2.6,0,3.91-1.3,3.91-3.91s-1.3-3.91-3.91-3.91h-11.72v39.05h-15.62V7.81l-3.91-3.91h31.24c13.02,0,19.53,6.51,19.53,19.53,0,10.41-2.6,16.28-7.81,17.61l29.59,50.24Z"/>
        <path class="cls-9" d="m218.68,3.91v15.62h-19.53v7.81h23.43l-23.43,11.72v3.91h19.53v15.62h-35.15V7.81l-3.91-3.91h39.05Z"/>
        <path class="cls-7" d="m242.11,3.91v39.05h15.62l-15.62,15.62h-15.62V7.81l-3.91-3.91h19.53Z"/>
        <path class="cls-6" d="m272.96,3.91v54.67h-15.62V7.81l-3.91-3.91h19.53Z"/>
        <path class="cls-11" d="m303.89,58.58c-7.55,0-13.99-2.67-19.33-8.01-5.34-5.34-8.01-11.78-8.01-19.33s2.67-13.99,8.01-19.33c5.34-5.34,11.78-8.01,19.33-8.01s13.99,2.67,19.33,8.01c5.34,5.34,8.01,11.78,8.01,19.33s-2.67,13.99-8.01,19.33c-5.34,5.34-11.78,8.01-19.33,8.01Zm8.28-19.06c2.29-2.29,3.44-5.05,3.44-8.28s-1.15-5.99-3.44-8.28c-2.29-2.29-5.05-3.44-8.28-3.44s-5.99,1.15-8.28,3.44c-2.29,2.29-3.44,5.05-3.44,8.28s1.14,5.99,3.44,8.28c2.29,2.29,5.05,3.44,8.28,3.44s5.99-1.14,8.28-3.44Z"/>
        <path class="cls-8" d="m386.95,3.91v58.58l-35.15-27.34v23.43h-15.62V0l35.15,29.29V7.81l-3.91-3.91h19.53Z"/>
        <path class="cls-14" d="m443.38,39.05c-13.02,0-19.53-5.91-19.53-17.73s6.51-17.42,19.53-17.42h23.43l-15.62,15.62h-7.81c-2.6,0-3.91.6-3.91,1.8,0,1.41,1.3,2.11,3.91,2.11h7.81c13.02,0,19.53,5.81,19.53,17.42s-6.51,17.73-19.53,17.73h-41.04l33.23-15.62h7.81c2.6,0,3.91-.7,3.91-2.11,0-1.2-1.3-1.8-3.91-1.8h-7.81Z"/>
        <path class="cls-10" d="m501.05,58.58c-7.55,0-13.99-2.67-19.33-8.01-5.34-5.34-8.01-11.78-8.01-19.33s2.67-13.99,8.01-19.33c5.34-5.34,11.78-8.01,19.33-8.01s13.99,2.67,19.33,8.01c5.34,5.34,8.01,11.78,8.01,19.33s-2.67,13.99-8.01,19.33c-5.34,5.34-11.78,8.01-19.33,8.01Zm8.28-19.06c2.29-2.29,3.44-5.05,3.44-8.28s-1.15-5.99-3.44-8.28c-2.29-2.29-5.05-3.44-8.28-3.44s-5.99,1.15-8.28,3.44c-2.29,2.29-3.44,5.05-3.44,8.28s1.14,5.99,3.44,8.28c2.29,2.29,5.05,3.44,8.28,3.44s5.99-1.14,8.28-3.44Z"/>
        <path class="cls-13" d="m548.62,3.91v39.05h43.84l-43.84,15.62h-15.62V7.81l-3.91-3.91h19.53Z"/>
      </g>
    </g>
  </g>
</svg>